<svg xmlns="http://www.w3.org/2000/svg" version="1.1" xmlns:xlink="http://www.w3.org/1999/xlink" xmlns:svgjs="http://svgjs.dev/svgjs" width="128" height="128" viewBox="0 0 128 128"><g transform="matrix(0.8046875,0,0,0.8046875,12.773767240128599,12.529485570529992)"><svg viewBox="0 0 95 95" data-background-color="#ffffff" preserveAspectRatio="xMidYMid meet" height="128" width="128" xmlns="http://www.w3.org/2000/svg" xmlns:xlink="http://www.w3.org/1999/xlink"><g id="tight-bounds" transform="matrix(1,0,0,1,-0.24049999999999727,-0.01607704943721444)"><svg viewBox="0 0 95.481 95.03215409887443" height="95.03215409887443" width="95.481"><g><svg viewBox="0 0 95.481 95.03215409887443" height="95.03215409887443" width="95.481"><g><svg viewBox="0 0 95.481 95.03215409887443" height="95.03215409887443" width="95.481"><g id="textblocktransform"><svg viewBox="0 0 95.481 95.03215409887443" height="95.03215409887443" width="95.481" id="textblock"><g><svg viewBox="0 0 95.481 95.03215409887443" height="95.03215409887443" width="95.481"><g><svg viewBox="0 0 95.481 95.03215409887443" height="95.03215409887443" width="95.481"><g><svg xmlns="http://www.w3.org/2000/svg" data-name="Layer 1" viewBox="0.49995735250847234 0.74 99.00006019342374 98.53467156920529" x="0" y="0" height="95.03215409887443" width="95.481" class="icon-icon-0" data-fill-palette-color="accent" id="icon-0"><path d="M88.09 0.74H42.29a11.42 11.42 0 0 0-11.41 11.4V31.86H11.06A10.57 10.57 0 0 0 0.5 42.42V75A10.57 10.57 0 0 0 11.06 85.6h4.66V96.76A2.5 2.5 0 0 0 20 98.53l13-12.93H51.59A10.57 10.57 0 0 0 62.15 75V59.59H64L78.42 73.95a2.5 2.5 0 0 0 4.27-1.77V59.59h5.41A11.42 11.42 0 0 0 99.5 48.18v-36A11.42 11.42 0 0 0 88.09 0.74ZM57.15 75a5.57 5.57 0 0 1-5.56 5.56H31.91a2.5 2.5 0 0 0-1.77 0.73l-9.42 9.4V83.1a2.5 2.5 0 0 0-2.5-2.5H11.06A5.57 5.57 0 0 1 5.5 75V42.42a5.57 5.57 0 0 1 5.56-5.56H30.89V48.18A11.42 11.42 0 0 0 42.29 59.59H57.15ZM94.5 48.18a6.41 6.41 0 0 1-6.41 6.41H80.18a2.5 2.5 0 0 0-2.5 2.5v9.06L66.83 55.32a2.5 2.5 0 0 0-1.77-0.73H42.29a6.41 6.41 0 0 1-6.41-6.41v-36a6.41 6.41 0 0 1 6.41-6.4h45.8a6.41 6.41 0 0 1 6.41 6.4Z" fill="#e83d95" data-fill-palette-color="accent"></path><path d="M73.94 15.88a9.4 9.4 0 0 0-8.48 2.57A9.4 9.4 0 0 0 57 15.88a10.73 10.73 0 0 0-8.29 9c-0.54 3.54-0.1 12.7 15.57 21.25a2.5 2.5 0 0 0 2.39 0c15.68-8.55 16.11-17.71 15.57-21.25A10.73 10.73 0 0 0 73.94 15.88ZM65.45 41.11c-8.18-4.75-12.58-10.47-11.83-15.44a5.72 5.72 0 0 1 4.32-4.9 4.45 4.45 0 0 1 0.87-0.09c1.72 0 3.3 1 4.5 3a2.5 2.5 0 0 0 4.28 0c1.4-2.31 3.3-3.35 5.37-2.94a5.73 5.73 0 0 1 4.32 4.9C78 30.65 73.64 36.36 65.45 41.11Z" fill="#e83d95" data-fill-palette-color="accent"></path></svg></g></svg></g></svg></g></svg></g></svg></g></svg></g><defs></defs></svg><rect width="95.481" height="95.03215409887443" fill="none" stroke="none" visibility="hidden"></rect></g></svg></g></svg>