<svg xmlns="http://www.w3.org/2000/svg" version="1.1" xmlns:xlink="http://www.w3.org/1999/xlink" xmlns:svgjs="http://svgjs.dev/svgjs" width="1000" height="303" viewBox="0 0 1000 303"><g transform="matrix(1,0,0,1,6.1404893338594775,6.763993931806311)"><svg viewBox="0 0 396 120" data-background-color="#ffffff" preserveAspectRatio="xMidYMid meet" height="303" width="1000" xmlns="http://www.w3.org/2000/svg" xmlns:xlink="http://www.w3.org/1999/xlink"><g id="tight-bounds" transform="matrix(1,0,0,1,0.2400000000000091,0.19212052988206096)"><svg viewBox="0 0 395.52 119.61575894023586" height="119.61575894023586" width="395.52"><g><svg viewBox="0 0 603.3257357610875 182.46173586983892" height="119.61575894023586" width="395.52"><g transform="matrix(1,0,0,1,207.80573576108748,39.37846497763561)"><svg viewBox="0 0 395.52 103.7048059145677" height="103.7048059145677" width="395.52"><g id="textblocktransform"><svg viewBox="0 0 395.52 103.7048059145677" height="103.7048059145677" width="395.52" id="textblock"><g><svg viewBox="0 0 395.52 103.7048059145677" height="103.7048059145677" width="395.52"><g transform="matrix(1,0,0,1,0,0)"><svg width="395.52" viewBox="2.83 -35.39 177.67 46.59" height="103.7048059145677" data-palette-color="#e83d95"><path d="M18.81-30.28L18.81-30.28Q13.32-30.28 10.15-26.62 6.98-22.95 6.98-16.52 6.98-10.09 10.04-6.53 13.09-2.98 18.76-2.98L18.76-2.98Q22.3-2.98 26.72-4.22L26.72-4.22 26.72-0.83Q23.26 0.46 18.17 0.46L18.17 0.46Q10.82 0.46 6.83-3.99L6.83-3.99Q2.83-8.49 2.83-16.68L2.83-16.68Q2.81-20.48 3.93-23.67 5.06-26.87 7.13-29.1 9.2-31.32 12.21-32.55 15.22-33.77 18.86-33.75L18.86-33.75Q24.14-33.75 28.01-31.83L28.01-31.83 26.37-28.51Q22.65-30.28 18.81-30.28ZM33.14-8.62L33.14-24.92 36.95-24.92 36.95-8.75Q36.95-5.69 38.36-4.2 39.76-2.7 42.69-2.7L42.69-2.7Q46.61-2.7 48.4-4.85 50.2-7 50.2-11.83L50.2-11.83 50.2-24.92 53.99-24.92 53.99 0 50.88 0 50.33-3.34 50.12-3.34Q48.96-1.52 46.91-0.53 44.87 0.46 42.21 0.46L42.21 0.46Q37.61 0.46 35.37-1.73 33.14-3.92 33.14-8.62L33.14-8.62ZM78.19-5.31Q80.03-7.91 80.03-12.54 80.03-17.16 78.21-19.67 76.39-22.17 73.05-22.17L73.05-22.17Q69.26-22.17 67.54-20.07 65.82-17.97 65.77-13.32L65.77-13.32 65.77-12.49Q65.77-7.23 67.51-4.97 69.26-2.7 73.12-2.7L73.12-2.7Q76.36-2.7 78.19-5.31ZM81.24-21.99Q83.94-18.6 83.94-12.46 83.94-6.32 81.2-2.93 78.46 0.46 73.44 0.46 68.42 0.46 65.77-3.21L65.77-3.21 65.49-3.21Q65.77-0.91 65.77 0.94L65.77 0.94 65.77 11.2 61.98 11.2 61.98-24.92 65.06-24.92 65.59-21.51 65.77-21.51Q68.5-25.38 73.52-25.38 78.53-25.38 81.24-21.99ZM94.03-29.82Q93.39-29.17 92.41-29.17 91.42-29.17 90.82-29.82 90.21-30.46 90.21-31.7 90.21-32.94 90.82-33.57 91.42-34.2 92.41-34.2 93.39-34.2 94.03-33.56 94.66-32.91 94.66-31.69 94.66-30.46 94.03-29.82ZM90.51-24.92L94.3-24.92 94.3 0 90.51 0 90.51-24.92ZM106.59-19.65Q104.82-17.09 104.82-12.34 104.82-7.58 106.57-5.14 108.33-2.7 111.72-2.7L111.72-2.7Q115.59-2.7 117.33-4.82 119.07-6.93 119.07-11.6L119.07-11.6 119.07-12.39Q119.07-17.72 117.31-19.97 115.54-22.22 111.67-22.22L111.67-22.22Q108.36-22.22 106.59-19.65ZM119.07-3.34Q116.45 0.46 111.4 0.46 106.36 0.46 103.63-2.88L103.63-2.88Q100.9-6.27 100.9-12.41 100.9-18.55 103.63-21.97 106.36-25.38 111.35-25.38 116.34-25.38 119.02-21.71L119.02-21.71 119.33-21.71 119.15-23.51 119.07-25.25 119.07-35.39 122.84-35.39 122.84 0 119.78 0 119.28-3.34 119.07-3.34ZM132.51-21.99Q135.58-25.38 140.89-25.38 146.2-25.38 149.28-21.9 152.36-18.43 152.36-12.42 152.36-6.42 149.28-2.96L149.28-2.96Q146.2 0.46 140.81 0.46L140.81 0.46Q135.73 0.51 132.55-3.06 129.36-6.62 129.44-12.49L129.44-12.49Q129.44-18.6 132.51-21.99ZM140.84-22.17L140.84-22.17Q133.35-22.17 133.35-12.49L133.35-12.49Q133.35-7.71 135.26-5.21 137.17-2.7 140.89-2.7 144.6-2.7 146.52-5.19 148.45-7.68 148.45-12.47 148.45-17.26 146.52-19.72 144.6-22.17 140.84-22.17ZM160.64-21.99Q163.71-25.38 169.02-25.38 174.33-25.38 177.41-21.9 180.5-18.43 180.5-12.42 180.5-6.42 177.41-2.96L177.41-2.96Q174.33 0.46 168.94 0.46L168.94 0.46Q163.86 0.51 160.68-3.06 157.49-6.62 157.57-12.49L157.57-12.49Q157.57-18.6 160.64-21.99ZM168.97-22.17L168.97-22.17Q161.49-22.17 161.49-12.49L161.49-12.49Q161.49-7.71 163.4-5.21 165.3-2.7 169.02-2.7 172.74-2.7 174.66-5.19 176.58-7.68 176.58-12.47 176.58-17.26 174.66-19.72 172.74-22.17 168.97-22.17Z" opacity="1" transform="matrix(1,0,0,1,0,0)" fill="#e83d95" class="undefined-text-0" data-fill-palette-color="primary" id="text-0"></path></svg></g></svg></g></svg></g></svg></g><g><svg viewBox="0 0 183.32352 182.46173586983892" height="182.46173586983892" width="183.32352"><g><svg xmlns="http://www.w3.org/2000/svg" data-name="Layer 1" viewBox="0.49995735250847234 0.74 99.00006019342374 98.53467156920529" x="0" y="0" height="182.46173586983892" width="183.32352" class="icon-icon-0" data-fill-palette-color="accent" id="icon-0"><path d="M88.09 0.74H42.29a11.42 11.42 0 0 0-11.41 11.4V31.86H11.06A10.57 10.57 0 0 0 0.5 42.42V75A10.57 10.57 0 0 0 11.06 85.6h4.66V96.76A2.5 2.5 0 0 0 20 98.53l13-12.93H51.59A10.57 10.57 0 0 0 62.15 75V59.59H64L78.42 73.95a2.5 2.5 0 0 0 4.27-1.77V59.59h5.41A11.42 11.42 0 0 0 99.5 48.18v-36A11.42 11.42 0 0 0 88.09 0.74ZM57.15 75a5.57 5.57 0 0 1-5.56 5.56H31.91a2.5 2.5 0 0 0-1.77 0.73l-9.42 9.4V83.1a2.5 2.5 0 0 0-2.5-2.5H11.06A5.57 5.57 0 0 1 5.5 75V42.42a5.57 5.57 0 0 1 5.56-5.56H30.89V48.18A11.42 11.42 0 0 0 42.29 59.59H57.15ZM94.5 48.18a6.41 6.41 0 0 1-6.41 6.41H80.18a2.5 2.5 0 0 0-2.5 2.5v9.06L66.83 55.32a2.5 2.5 0 0 0-1.77-0.73H42.29a6.41 6.41 0 0 1-6.41-6.41v-36a6.41 6.41 0 0 1 6.41-6.4h45.8a6.41 6.41 0 0 1 6.41 6.4Z" fill="#e83d95" data-fill-palette-color="accent"></path><path d="M73.94 15.88a9.4 9.4 0 0 0-8.48 2.57A9.4 9.4 0 0 0 57 15.88a10.73 10.73 0 0 0-8.29 9c-0.54 3.54-0.1 12.7 15.57 21.25a2.5 2.5 0 0 0 2.39 0c15.68-8.55 16.11-17.71 15.57-21.25A10.73 10.73 0 0 0 73.94 15.88ZM65.45 41.11c-8.18-4.75-12.58-10.47-11.83-15.44a5.72 5.72 0 0 1 4.32-4.9 4.45 4.45 0 0 1 0.87-0.09c1.72 0 3.3 1 4.5 3a2.5 2.5 0 0 0 4.28 0c1.4-2.31 3.3-3.35 5.37-2.94a5.73 5.73 0 0 1 4.32 4.9C78 30.65 73.64 36.36 65.45 41.11Z" fill="#e83d95" data-fill-palette-color="accent"></path></svg></g></svg></g></svg></g><defs></defs></svg><rect width="395.52" height="119.61575894023586" fill="none" stroke="none" visibility="hidden"></rect></g></svg></g></svg>